<svg width="164" height="31" viewBox="0 0 164 31" fill="none" xmlns="http://www.w3.org/2000/svg">
<path d="M52.7065 27.566C50.3498 27.566 48.2666 27.0911 46.4569 26.1423C44.6467 25.1715 43.2476 23.8017 42.2585 22.0333C41.2699 20.2645 40.7754 18.1831 40.7754 15.7889C40.7754 13.3946 41.2699 11.3132 42.2585 9.54456C43.2476 7.75426 44.6467 6.38464 46.4569 5.43554C48.2666 4.46492 50.3498 3.97961 52.7065 3.97961C54.3062 3.97961 55.7158 4.15218 56.9365 4.49726C58.1781 4.82082 59.3142 5.33847 60.3453 6.05027V10.7416C59.4197 9.96514 58.3571 9.40433 57.1575 9.0592C55.9789 8.69254 54.6322 8.50921 53.1171 8.50921C51.7075 8.50921 50.4338 8.81119 49.2977 9.4151C48.1826 9.99748 47.2985 10.8387 46.6465 11.9387C45.9939 13.0387 45.6679 14.3221 45.6679 15.7889C45.6679 17.2772 45.9624 18.5821 46.5514 19.7037C47.162 20.8038 48.0141 21.6558 49.1082 22.2597C50.2023 22.8637 51.4654 23.1656 52.8961 23.1656C54.2007 23.1656 55.3368 22.9284 56.3049 22.4538V18.086H52.738V14.4623H60.9448V25.3657C58.8616 26.8324 56.1159 27.566 52.7065 27.566Z" fill="#81818B"/>
<path d="M62.0531 11.5505H66.6615V13.783C67.2721 13.028 68.1242 12.4564 69.2183 12.0682C70.3124 11.6583 71.5545 11.4535 72.9432 11.4535V15.1742C71.491 15.1742 70.2074 15.4006 69.0923 15.8536C67.9977 16.3066 67.2401 16.9968 66.8196 17.9243V27.0806H62.0531V11.5505Z" fill="#81818B"/>
<path d="M82.1029 27.566C79.1986 27.566 76.9154 26.8539 75.2532 25.4302C73.5905 23.9855 72.7595 21.9685 72.7595 19.3802C72.7595 16.8134 73.496 14.7859 74.9692 13.2976C76.4633 11.8093 78.5885 11.0652 81.3453 11.0652C83.155 11.0652 84.6906 11.4103 85.9538 12.1005C87.2159 12.7907 88.174 13.7506 88.826 14.98C89.4786 16.1879 89.8046 17.5576 89.8046 19.089V21.0626H77.3049C77.6414 23.047 79.4511 24.0394 82.7339 24.0394C83.702 24.0394 84.7016 23.953 85.7327 23.7803C86.7638 23.6078 87.6584 23.3705 88.416 23.0686V26.4983C87.6794 26.8214 86.7323 27.0806 85.5747 27.2749C84.4176 27.4686 83.26 27.566 82.1029 27.566ZM85.2907 17.8919C85.2277 16.8566 84.8486 16.0585 84.1546 15.4977C83.46 14.9153 82.5024 14.6241 81.2818 14.6241C80.0827 14.6241 79.1356 14.9153 78.441 15.4977C77.747 16.0801 77.3679 16.8781 77.3049 17.8919H85.2907Z" fill="#81818B"/>
<path d="M99.5743 27.566C96.6706 27.566 94.3873 26.8539 92.7246 25.4302C91.0625 23.9855 90.2309 21.9685 90.2309 19.3802C90.2309 16.8134 90.9675 14.7859 92.4406 13.2976C93.9348 11.8093 96.06 11.0652 98.8167 11.0652C100.626 11.0652 102.163 11.4103 103.426 12.1005C104.688 12.7907 105.645 13.7506 106.297 14.98C106.95 16.1879 107.276 17.5576 107.276 19.089V21.0626H94.7763C95.1129 23.047 96.9231 24.0394 100.206 24.0394C101.174 24.0394 102.174 23.953 103.204 23.7803C104.235 23.6078 105.13 23.3705 105.887 23.0686V26.4983C105.151 26.8214 104.204 27.0806 103.047 27.2749C101.889 27.4686 100.732 27.566 99.5743 27.566ZM102.763 17.8919C102.699 16.8566 102.321 16.0585 101.627 15.4977C100.931 14.9153 99.9744 14.6241 98.7537 14.6241C97.5541 14.6241 96.6076 14.9153 95.913 15.4977C95.2184 16.0801 94.8399 16.8781 94.7763 17.8919H102.763Z" fill="#81818B"/>
<path d="M108.334 11.5505H112.942V13.4594C113.637 12.6613 114.458 12.0682 115.405 11.6799C116.373 11.2701 117.383 11.0652 118.435 11.0652C120.498 11.0652 122.034 11.6368 123.043 12.7799C124.075 13.9016 124.591 15.4222 124.591 17.3419V27.0806H119.824V17.8919C119.824 15.8859 118.919 14.883 117.109 14.883C116.31 14.883 115.563 15.0879 114.868 15.4977C114.174 15.8859 113.584 16.4683 113.1 17.2448V27.0806H108.334V11.5505Z" fill="#81818B"/>
<path d="M128.795 9.15625C128.059 9.15625 127.439 8.90824 126.934 8.41212C126.428 7.91605 126.176 7.29051 126.176 6.53556C126.176 5.80224 126.428 5.18752 126.934 4.69139C127.439 4.17374 128.059 3.91492 128.795 3.91492C129.532 3.91492 130.153 4.17374 130.658 4.69139C131.163 5.18752 131.416 5.80224 131.416 6.53556C131.416 7.29051 131.163 7.91605 130.658 8.41212C130.153 8.90824 129.532 9.15625 128.795 9.15625ZM126.397 11.5505H131.195V27.0806H126.397V11.5505Z" fill="#81818B"/>
<path d="M139.324 27.566C138.188 27.566 136.967 27.4362 135.662 27.1775C134.379 26.9403 133.369 26.5952 132.632 26.1423V22.3244C133.474 22.8421 134.484 23.2627 135.662 23.5862C136.841 23.9096 137.935 24.0714 138.945 24.0714C139.808 24.0714 140.439 23.996 140.839 23.8451C141.238 23.6941 141.438 23.4137 141.438 23.0039C141.438 22.6803 141.323 22.4215 141.091 22.2274C140.86 22.0117 140.502 21.8283 140.018 21.6774C139.555 21.5048 138.776 21.2567 137.682 20.9332C136.399 20.5449 135.388 20.1567 134.652 19.7685C133.937 19.3586 133.39 18.8518 133.011 18.2478C132.653 17.6439 132.474 16.8673 132.474 15.9183C132.474 14.3005 133.095 13.0927 134.337 12.2946C135.599 11.475 137.303 11.0652 139.45 11.0652C140.502 11.0652 141.586 11.1838 142.701 11.4211C143.837 11.6368 144.711 11.928 145.321 12.2946V16.0154C144.711 15.6055 143.911 15.2712 142.922 15.0124C141.954 14.7536 141.007 14.6241 140.081 14.6241C139.218 14.6241 138.545 14.7104 138.061 14.883C137.599 15.0555 137.366 15.3791 137.366 15.8536C137.366 16.2634 137.587 16.5762 138.03 16.7919C138.492 17.0076 139.345 17.2772 140.586 17.6008L141.218 17.7625C142.543 18.1292 143.574 18.539 144.311 18.992C145.047 19.4233 145.563 19.9518 145.858 20.5773C146.173 21.1813 146.331 21.947 146.331 22.8744C146.331 24.2981 145.731 25.4411 144.532 26.3041C143.333 27.145 141.596 27.566 139.324 27.566Z" fill="#81818B"/>
<path d="M147.433 3.17078H152.199V13.33C152.915 12.575 153.725 12.0142 154.63 11.6476C155.535 11.2593 156.503 11.0652 157.534 11.0652C159.596 11.0652 161.132 11.6368 162.142 12.78C163.173 13.9016 163.689 15.4222 163.689 17.3419V27.0806H158.923V17.8919C158.923 15.886 158.018 14.883 156.208 14.883C155.408 14.883 154.662 15.0879 153.967 15.4977C153.272 15.886 152.683 16.4683 152.199 17.2448V27.0806H147.433V3.17078Z" fill="#81818B"/>
<path fill-rule="evenodd" clip-rule="evenodd" d="M24.4972 7.74858C24.4972 11.8583 21.2471 15.19 17.2375 15.19C13.2279 15.19 9.97753 11.8583 9.97753 7.74858C9.97753 3.63878 13.2279 0.307129 17.2375 0.307129C21.2471 0.307129 24.4972 3.63878 24.4972 7.74858ZM0.350238 14.6492C8.25978 14.1027 15.1532 20.1727 15.7953 28.2971C15.8618 29.1389 15.8586 29.97 15.7907 30.7848C7.88115 31.3313 0.987745 25.2612 0.345617 17.1368C0.279152 16.2949 0.282303 15.4637 0.350238 14.6492ZM20.9083 30.5002C28.8346 29.8419 34.7563 22.7764 34.2234 14.6691C33.4285 14.5995 32.6179 14.5962 31.7963 14.6644C23.87 15.3225 17.9482 22.3883 18.4814 30.4955C19.2761 30.5653 20.0869 30.5685 20.9083 30.5002Z" fill="#81818B"/>
</svg>
