<svg width="168" height="38" viewBox="0 0 168 38" fill="none" xmlns="http://www.w3.org/2000/svg">
<path d="M50.0682 10.5348C51.6558 10.5348 53.0297 10.7903 54.1905 11.3014C55.3681 11.8124 56.2721 12.5378 56.9037 13.4776C57.5353 14.4173 57.8513 15.5301 57.8513 16.816C57.8513 18.0854 57.5353 19.1982 56.9037 20.1544C56.2721 21.0941 55.3681 21.8195 54.1905 22.3308C53.0297 22.8251 51.6558 23.0725 50.0682 23.0725H46.4588V27.8453H42.3118V10.5348H50.0682ZM49.8382 19.8082C51.0835 19.8082 52.0312 19.5527 52.6795 19.0416C53.3284 18.514 53.6524 17.7722 53.6524 16.816C53.6524 15.8433 53.3284 15.1014 52.6795 14.5904C52.0312 14.0628 51.0835 13.799 49.8382 13.799H46.4588V19.8082H49.8382Z" fill="#81818B"/>
<path d="M63.0651 16.2967C63.5423 15.6537 64.1828 15.1674 64.9845 14.8377C65.804 14.5079 66.7422 14.3431 67.8006 14.3431V17.9041C67.357 17.8711 67.0582 17.8547 66.9044 17.8547C65.761 17.8547 64.8653 18.1679 64.2169 18.7944C63.568 19.4043 63.2436 20.3276 63.2436 21.5639V27.8454H59.2504V14.541H63.0651V16.2967Z" fill="#81818B"/>
<path d="M75.3238 28.0429C73.8733 28.0429 72.5676 27.7547 71.4073 27.1774C70.2639 26.5841 69.3677 25.7678 68.7193 24.7292C68.071 23.6906 67.7465 22.5118 67.7465 21.1931C67.7465 19.8742 68.071 18.6954 68.7193 17.6568C69.3677 16.6182 70.2639 15.8104 71.4073 15.2334C72.5676 14.6399 73.8733 14.3431 75.3238 14.3431C76.7744 14.3431 78.0717 14.6399 79.2151 15.2334C80.3586 15.8104 81.2548 16.6182 81.9037 17.6568C82.5515 18.6954 82.876 19.8742 82.876 21.1931C82.876 22.5118 82.5515 23.6906 81.9037 24.7292C81.2548 25.7678 80.3586 26.5841 79.2151 27.1774C78.0717 27.7547 76.7744 28.0429 75.3238 28.0429ZM75.3238 24.8776C76.3481 24.8776 77.1844 24.5482 77.8328 23.8885C78.4985 23.2127 78.8308 22.3143 78.8308 21.1931C78.8308 20.072 78.4985 19.1818 77.8328 18.5223C77.1844 17.8464 76.3481 17.5084 75.3238 17.5084C74.3001 17.5084 73.4554 17.8464 72.7897 18.5223C72.124 19.1818 71.7911 20.072 71.7911 21.1931C71.7911 22.3143 72.124 23.2127 72.7897 23.8885C73.4554 24.5482 74.3001 24.8776 75.3238 24.8776Z" fill="#81818B"/>
<path d="M100.983 10.5348V27.8453H97.5781L88.6431 17.3353V27.8453H84.5471V10.5348H87.9774L96.8867 21.0447V10.5348H100.983Z" fill="#81818B"/>
<path d="M109.216 14.3431C111.349 14.3431 112.988 14.8377 114.131 15.8269C115.275 16.7996 115.846 18.2751 115.846 20.2534V27.8454H112.109V26.1883C111.358 27.4248 109.959 28.0429 107.911 28.0429C106.852 28.0429 105.93 27.8701 105.145 27.5238C104.378 27.1774 103.789 26.6996 103.379 26.0894C102.97 25.4795 102.765 24.7869 102.765 24.0122C102.765 22.7757 103.243 21.8031 104.198 21.0942C105.171 20.3853 106.665 20.0308 108.679 20.0308H111.853C111.853 19.19 111.589 18.5471 111.059 18.1019C110.53 17.6403 109.737 17.4095 108.679 17.4095C107.945 17.4095 107.219 17.5249 106.503 17.7557C105.803 17.9701 105.205 18.2668 104.71 18.646L103.277 15.9505C104.028 15.4394 104.923 15.0438 105.964 14.7635C107.023 14.4833 108.107 14.3431 109.216 14.3431ZM108.909 25.4466C109.592 25.4466 110.197 25.2982 110.726 25.0013C111.255 24.6879 111.631 24.2348 111.853 23.6411V22.2813H109.114C107.475 22.2813 106.656 22.8004 106.656 23.839C106.656 24.3338 106.852 24.7292 107.245 25.0261C107.654 25.3064 108.209 25.4466 108.909 25.4466Z" fill="#81818B"/>
<path d="M127.064 27.2021C126.672 27.4825 126.185 27.6969 125.605 27.8453C125.042 27.9768 124.444 28.0428 123.813 28.0428C122.175 28.0428 120.903 27.6392 119.999 26.8315C119.111 26.0234 118.667 24.8363 118.667 23.2704V17.8052H116.543V14.8377H118.667V11.5981H122.661V14.8377H126.091V17.8052H122.661V23.2209C122.661 23.7812 122.806 24.2183 123.096 24.5316C123.403 24.8281 123.83 24.9765 124.376 24.9765C125.008 24.9765 125.545 24.8116 125.989 24.4822L127.064 27.2021Z" fill="#81818B"/>
<path d="M141.902 14.541V27.8454H138.113V26.2626C137.584 26.8394 136.952 27.2847 136.218 27.598C135.484 27.8949 134.691 28.0429 133.837 28.0429C132.028 28.0429 130.595 27.5403 129.536 26.5347C128.478 25.5291 127.949 24.037 127.949 22.0588V14.541H131.943V21.4898C131.943 23.6329 132.873 24.7045 134.733 24.7045C135.689 24.7045 136.457 24.408 137.038 23.8143C137.617 23.2045 137.908 22.3061 137.908 21.119V14.541H141.902Z" fill="#81818B"/>
<path d="M148.136 16.2967C148.613 15.6537 149.254 15.1674 150.056 14.8377C150.875 14.5079 151.814 14.3431 152.872 14.3431V17.9041C152.428 17.8711 152.129 17.8547 151.976 17.8547C150.832 17.8547 149.936 18.1679 149.288 18.7944C148.639 19.4043 148.315 20.3276 148.315 21.5639V27.8454H144.321V14.541H148.136V16.2967Z" fill="#81818B"/>
<path d="M167.333 21.2427C167.333 21.2918 167.308 21.6381 167.256 22.2813H156.837C157.024 23.1055 157.468 23.7565 158.168 24.2348C158.868 24.7127 159.738 24.9518 160.779 24.9518C161.496 24.9518 162.127 24.8529 162.673 24.655C163.237 24.441 163.757 24.1111 164.235 23.6658L166.36 25.8915C165.063 27.3259 163.168 28.0429 160.676 28.0429C159.124 28.0429 157.75 27.7547 156.555 27.1774C155.36 26.5841 154.439 25.7678 153.79 24.7292C153.141 23.6906 152.818 22.5118 152.818 21.1931C152.818 19.8907 153.133 18.7202 153.765 17.6816C154.413 16.6264 155.292 15.8104 156.401 15.2334C157.528 14.6399 158.782 14.3431 160.165 14.3431C161.513 14.3431 162.733 14.6234 163.826 15.1839C164.918 15.7444 165.771 16.5522 166.386 17.6074C167.017 18.646 167.333 19.8577 167.333 21.2427ZM160.19 17.2611C159.286 17.2611 158.526 17.5084 157.912 18.003C157.297 18.4976 156.922 19.1736 156.785 20.0308H163.57C163.433 19.19 163.057 18.5223 162.443 18.0277C161.829 17.5167 161.078 17.2611 160.19 17.2611Z" fill="#81818B"/>
<path fill-rule="evenodd" clip-rule="evenodd" d="M19.568 0.894558C18.9595 0.554516 18.2093 0.554516 17.6008 0.894558C13.2788 3.30961 10.3637 7.82824 10.3637 13.0068C10.3637 13.7449 10.423 14.4695 10.537 15.1767C7.5618 14.2006 4.34029 14.5558 1.70899 16.0204C1.09994 16.3594 0.724774 16.987 0.725404 17.6661C0.728501 21.2485 2.65504 24.7399 6.10534 26.6641C7.79805 27.6083 9.64557 28.0569 11.468 28.0577C11.1907 28.8167 11.0398 29.6331 11.0398 30.4837C11.0398 34.5086 14.4176 37.771 18.5841 37.771C22.7509 37.771 26.1284 34.5086 26.1284 30.4837C26.1284 29.631 25.9769 28.813 25.6985 28.0528C27.4123 28.0004 29.1384 27.551 30.7279 26.6641C34.1786 24.7399 36.1048 21.2485 36.1074 17.6662C36.1085 16.9872 35.7331 16.3596 35.1241 16.0205C32.5967 14.6136 29.5242 14.2305 26.6491 15.0677C26.752 14.3951 26.8049 13.707 26.8049 13.0068C26.8049 7.82824 23.8901 3.30961 19.568 0.894558ZM14.2925 13.0068C14.2925 9.644 15.9781 6.65969 18.5844 4.80208C21.1907 6.65969 22.8764 9.644 22.8764 13.0068C22.8764 16.3696 21.1907 19.3539 18.5844 21.2115C15.9781 19.3539 14.2925 16.3696 14.2925 13.0068ZM26.3315 19.3087C28.1456 18.297 30.2417 18.1793 32.0728 18.8195C31.7315 20.6714 30.5776 22.3659 28.7636 23.3776C26.9496 24.3894 24.8535 24.5069 23.0224 23.867C23.3638 22.0149 24.5175 20.3205 26.3315 19.3087ZM4.7605 18.8194C6.59149 18.1792 8.68761 18.2969 10.5016 19.3086C12.3158 20.3203 13.4693 22.0149 13.8109 23.8666C11.9798 24.5069 9.88377 24.3894 8.06968 23.3776C6.25565 22.3659 5.10207 20.6712 4.7605 18.8194ZM14.9685 30.4837C14.9685 28.5549 16.5873 26.9911 18.5841 26.9911C20.581 26.9911 22.1998 28.5549 22.1998 30.4837C22.1998 32.4124 20.581 33.9763 18.5841 33.9763C16.5873 33.9763 14.9685 32.4124 14.9685 30.4837Z" fill="#81818B"/>
</svg>
