<svg width="160" height="30" viewBox="0 0 160 30" fill="none" xmlns="http://www.w3.org/2000/svg">
<path d="M4.69563 4.02996C6.84981 2.06809 9.7749 0.92296 12.7395 0.780528C13.7542 0.780528 14.7719 0.786303 15.7865 0.777588C15.7347 1.81525 15.7865 2.85575 15.756 3.89336C15.6128 6.21276 14.7139 8.47981 13.1996 10.2993C11.2313 12.7466 8.22095 14.3887 5.0247 14.8131C3.6292 15.0281 2.21233 14.8915 0.807743 14.9293C0.832103 13.787 0.755925 12.642 0.850373 11.5026C1.12463 8.67747 2.52318 5.97152 4.69563 4.02996Z" fill="#81818B"/>
<path d="M16.7261 0.777588C17.8139 0.789243 18.9016 0.771813 19.9924 0.783416C22.7072 0.966483 25.3855 1.96052 27.4298 3.68415C29.6845 5.52973 31.2296 8.16885 31.6255 10.9882C31.7992 12.296 31.6895 13.6185 31.7567 14.9322C30.8059 14.9293 29.8583 14.9264 28.9075 14.9322C26.5708 14.8712 24.2734 14.1504 22.3172 12.9355C21.4153 12.3193 20.489 11.6944 19.8126 10.8399C18.3288 9.25875 17.3203 7.27362 16.9394 5.18097C16.6529 3.72767 16.7687 2.24538 16.7261 0.777588Z" fill="#81818B"/>
<path d="M0.809783 15.7634C1.77568 15.8157 2.74462 15.7198 3.70742 15.8215C7.82993 15.9058 11.8306 18.1147 13.9664 21.4776C15.1914 23.361 15.8495 25.5933 15.7642 27.8107C15.7611 28.5378 15.7733 29.2613 15.752 29.9853C14.2224 29.9412 12.6776 30.0603 11.1633 29.7784C7.79948 29.2382 4.70686 27.3283 2.8451 24.6021C1.43438 22.6198 0.730561 20.1987 0.803693 17.8067C0.803693 17.1236 0.803693 16.4435 0.809783 15.7634Z" fill="#81818B"/>
<path d="M26.6084 16.0714C28.266 15.7196 29.9748 15.7778 31.6601 15.7778L31.7336 15.8476C31.6968 17.3677 31.8218 18.9052 31.5021 20.4078C30.8285 23.7794 28.4886 26.7903 25.3409 28.4441C23.3817 29.4849 21.1331 29.9963 18.8936 29.9732C18.1776 29.9763 17.4585 29.9616 16.7425 29.9816C16.7425 28.7232 16.6876 27.4592 16.8369 26.2061C17.1843 23.1748 18.9028 20.3526 21.3738 18.446C22.9034 17.295 24.7011 16.4608 26.6084 16.0714Z" fill="#81818B"/>
<path d="M44.2417 24.3555C44.2417 24.8672 44.0559 25.3 43.6852 25.6544C43.334 25.9891 42.8904 26.1564 42.3544 26.1564C41.8383 26.1564 41.4052 25.9891 41.0545 25.6544C40.7038 25.3 40.5284 24.8672 40.5284 24.3555V6.11191C40.5284 5.60019 40.7038 5.17709 41.0545 4.84256C41.4256 4.48829 41.8798 4.31116 42.4163 4.31116C42.9523 4.31116 43.3855 4.48829 43.7157 4.84256C44.0664 5.17709 44.2417 5.60019 44.2417 6.11191V24.3555Z" fill="#81818B"/>
<path d="M59.1475 10.3628C59.6836 10.3628 60.1272 10.5399 60.4784 10.8941C60.8286 11.2287 61.0039 11.6518 61.0039 12.1635V19.6617C61.0039 21.7478 60.3955 23.4009 59.1785 24.6211C57.961 25.8413 56.2075 26.4512 53.917 26.4512C51.6274 26.4512 49.8734 25.8413 48.6565 24.6211C47.46 23.4009 46.8615 21.7478 46.8615 19.6617V12.1635C46.8615 11.6518 47.0368 11.2287 47.3875 10.8941C47.7382 10.5399 48.1819 10.3628 48.7184 10.3628C49.255 10.3628 49.6981 10.5399 50.0488 10.8941C50.4 11.2287 50.5753 11.6518 50.5753 12.1635V19.6617C50.5753 20.8622 50.8541 21.7576 51.4106 22.348C51.9676 22.9188 52.8034 23.2041 53.917 23.2041C55.0525 23.2041 55.8978 22.9188 56.4553 22.348C57.0118 21.7576 57.2906 20.8622 57.2906 19.6617V12.1635C57.2906 11.6518 57.466 11.2287 57.8167 10.8941C58.1674 10.5399 58.611 10.3628 59.1475 10.3628Z" fill="#81818B"/>
<path d="M72.1733 10.0676C73.8239 10.0676 75.0409 10.4514 75.8252 11.2189C76.609 11.9668 77.1251 12.9409 77.3724 14.1414L76.8463 13.8757L77.0941 13.4034C77.3414 12.9507 77.7231 12.4686 78.2392 11.9569C78.7547 11.4255 79.3737 10.9828 80.0956 10.6285C80.8384 10.2545 81.6637 10.0676 82.5715 10.0676C84.0572 10.0676 85.1812 10.3727 85.9446 10.9827C86.7289 11.5928 87.265 12.4095 87.5537 13.4329C87.843 14.4366 87.9874 15.5584 87.9874 16.7982V24.3554C87.9874 24.8672 87.812 25.3 87.4608 25.6544C87.1101 25.989 86.667 26.1564 86.1304 26.1564C85.5944 26.1564 85.1503 25.989 84.7996 25.6544C84.4489 25.3 84.2735 24.8672 84.2735 24.3554V16.7982C84.2735 16.1488 84.1911 15.5683 84.0262 15.0565C83.8609 14.5251 83.5616 14.102 83.1285 13.7871C82.6954 13.4723 82.0764 13.3148 81.2721 13.3148C80.4877 13.3148 79.8173 13.4723 79.2603 13.7871C78.7027 14.102 78.2801 14.5251 77.9914 15.0565C77.7231 15.5683 77.5887 16.1488 77.5887 16.7982V24.3554C77.5887 24.8672 77.4133 25.3 77.0632 25.6544C76.7125 25.989 76.2683 26.1564 75.7323 26.1564C75.1957 26.1564 74.7521 25.989 74.4019 25.6544C74.0507 25.3 73.8754 24.8672 73.8754 24.3554V16.7982C73.8754 16.1488 73.7929 15.5683 73.6276 15.0565C73.4627 14.5251 73.1635 14.102 72.7303 13.7871C72.2972 13.4723 71.6777 13.3148 70.8734 13.3148C70.0896 13.3148 69.4192 13.4723 68.8616 13.7871C68.3051 14.102 67.882 14.5251 67.5932 15.0565C67.3249 15.5683 67.1911 16.1488 67.1911 16.7982V24.3554C67.1911 24.8672 67.0157 25.3 66.665 25.6544C66.3138 25.989 65.8707 26.1564 65.3341 26.1564C64.7976 26.1564 64.3545 25.989 64.0033 25.6544C63.6526 25.3 63.4772 24.8672 63.4772 24.3554V12.1635C63.4772 11.6519 63.6526 11.2287 64.0033 10.8942C64.3545 10.5399 64.7976 10.3628 65.3341 10.3628C65.8707 10.3628 66.3138 10.5399 66.665 10.8942C67.0157 11.2287 67.1911 11.6519 67.1911 12.1635V13.4329L66.7264 13.3444C66.9123 13.0098 67.1706 12.6555 67.5003 12.2816C67.8305 11.888 68.2327 11.5239 68.7073 11.1893C69.1819 10.8548 69.7079 10.5891 70.2854 10.3923C70.8634 10.1758 71.4929 10.0676 72.1733 10.0676Z" fill="#81818B"/>
<path d="M93.9561 24.3555C93.9561 24.8672 93.7807 25.3 93.4295 25.6544C93.0793 25.989 92.6357 26.1564 92.0991 26.1564C91.5631 26.1564 91.119 25.989 90.7683 25.6544C90.4181 25.3 90.2427 24.8672 90.2427 24.3555V12.1635C90.2427 11.6519 90.4181 11.2287 90.7683 10.8942C91.119 10.5399 91.5631 10.3628 92.0991 10.3628C92.6357 10.3628 93.0793 10.5399 93.4295 10.8942C93.7807 11.2287 93.9561 11.6519 93.9561 12.1635V24.3555ZM92.0682 8.44396C91.3668 8.44396 90.8717 8.33576 90.5824 8.11925C90.2942 7.90279 90.1498 7.51902 90.1498 6.96798V6.40707C90.1498 5.83639 90.3047 5.45256 90.6134 5.25579C90.9436 5.03928 91.4392 4.93103 92.0991 4.93103C92.8215 4.93103 93.3271 5.03928 93.6153 5.25579C93.9046 5.47225 94.049 5.85603 94.049 6.40707V6.96798C94.049 7.5387 93.8941 7.9323 93.5844 8.14875C93.2757 8.34558 92.7696 8.44396 92.0682 8.44396Z" fill="#81818B"/>
<path d="M105.076 10.0676C106.603 10.0676 107.758 10.3727 108.542 10.9827C109.347 11.5928 109.893 12.4095 110.182 13.4329C110.492 14.4366 110.646 15.5584 110.646 16.7982V24.3554C110.646 24.8672 110.471 25.3 110.12 25.6544C109.77 25.989 109.326 26.1564 108.789 26.1564C108.253 26.1564 107.81 25.989 107.459 25.6544C107.108 25.3 106.933 24.8672 106.933 24.3554V16.7982C106.933 16.1488 106.84 15.5683 106.655 15.0565C106.489 14.5251 106.18 14.102 105.726 13.7871C105.272 13.4723 104.622 13.3148 103.776 13.3148C102.951 13.3148 102.25 13.4723 101.672 13.7871C101.115 14.102 100.682 14.5251 100.372 15.0565C100.083 15.5683 99.9385 16.1488 99.9385 16.7982V24.3554C99.9385 24.8672 99.7636 25.3 99.4129 25.6544C99.0622 25.989 98.6181 26.1564 98.0821 26.1564C97.5455 26.1564 97.1019 25.989 96.7517 25.6544C96.4005 25.3 96.2251 24.8672 96.2251 24.3554V12.1635C96.2251 11.6519 96.4005 11.2287 96.7517 10.8942C97.1019 10.5399 97.5455 10.3628 98.0821 10.3628C98.6181 10.3628 99.0622 10.5399 99.4129 10.8942C99.7636 11.2287 99.9385 11.6519 99.9385 12.1635V13.4329L99.4749 13.3444C99.6607 13.0098 99.9285 12.6555 100.279 12.2816C100.63 11.888 101.043 11.5239 101.517 11.1893C101.992 10.8548 102.528 10.5891 103.126 10.3923C103.725 10.1758 104.375 10.0676 105.076 10.0676Z" fill="#81818B"/>
<path d="M129.02 18.2742C129.02 19.888 128.638 21.3149 127.875 22.5547C127.132 23.7749 126.121 24.7294 124.842 25.4181C123.583 26.1072 122.17 26.4512 120.602 26.4512C119.034 26.4512 117.61 26.1072 116.332 25.4181C115.073 24.7294 114.063 23.7749 113.299 22.5547C112.556 21.3149 112.185 19.888 112.185 18.2742C112.185 16.6605 112.556 15.2435 113.299 14.0233C114.063 12.7835 115.073 11.8191 116.332 11.1303C117.61 10.4218 119.034 10.0676 120.602 10.0676C122.17 10.0676 123.583 10.4218 124.842 11.1303C126.121 11.8191 127.132 12.7835 127.875 14.0233C128.638 15.2435 129.02 16.6605 129.02 18.2742ZM125.306 18.2742C125.306 17.2706 125.09 16.4046 124.656 15.6765C124.243 14.9286 123.676 14.3481 122.954 13.9348C122.253 13.5215 121.469 13.3148 120.602 13.3148C119.736 13.3148 118.941 13.5215 118.219 13.9348C117.518 14.3481 116.95 14.9286 116.517 15.6765C116.105 16.4046 115.898 17.2706 115.898 18.2742C115.898 19.2583 116.105 20.1242 116.517 20.8721C116.95 21.6002 117.518 22.1709 118.219 22.5842C118.941 22.9975 119.736 23.2041 120.602 23.2041C121.469 23.2041 122.253 22.9975 122.954 22.5842C123.676 22.1709 124.243 21.6002 124.656 20.8721C125.09 20.1242 125.306 19.2583 125.306 18.2742Z" fill="#81818B"/>
<path d="M142.861 10.3628C143.397 10.3628 143.841 10.5399 144.192 10.8941C144.542 11.2287 144.718 11.6518 144.718 12.1635V19.6617C144.718 21.7478 144.109 23.4009 142.892 24.6211C141.674 25.8413 139.921 26.4512 137.631 26.4512C135.341 26.4512 133.587 25.8413 132.37 24.6211C131.173 23.4009 130.575 21.7478 130.575 19.6617V12.1635C130.575 11.6518 130.75 11.2287 131.101 10.8941C131.452 10.5399 131.895 10.3628 132.432 10.3628C132.968 10.3628 133.412 10.5399 133.763 10.8941C134.113 11.2287 134.289 11.6518 134.289 12.1635V19.6617C134.289 20.8622 134.567 21.7576 135.124 22.348C135.681 22.9188 136.517 23.2041 137.631 23.2041C138.765 23.2041 139.612 22.9188 140.168 22.348C140.726 21.7576 141.004 20.8622 141.004 19.6617V12.1635C141.004 11.6518 141.18 11.2287 141.53 10.8941C141.881 10.5399 142.325 10.3628 142.861 10.3628Z" fill="#81818B"/>
<path d="M146.231 23.706C146.025 23.4305 145.932 23.0762 145.953 22.6433C145.974 22.2103 146.242 21.8364 146.758 21.5215C147.088 21.3247 147.438 21.246 147.81 21.2854C148.181 21.305 148.542 21.4821 148.893 21.8167C149.492 22.3874 150.121 22.8302 150.781 23.1451C151.441 23.46 152.266 23.6174 153.256 23.6174C153.566 23.5977 153.906 23.5584 154.278 23.4993C154.649 23.4206 154.969 23.2632 155.237 23.027C155.525 22.7712 155.67 22.3874 155.67 21.8757C155.67 21.4428 155.515 21.0983 155.206 20.8425C154.897 20.5867 154.484 20.3702 153.968 20.1931C153.473 20.016 152.916 19.8487 152.297 19.6912C151.657 19.5141 150.997 19.3173 150.316 19.1008C149.656 18.8844 149.047 18.6089 148.49 18.2742C147.934 17.92 147.48 17.4575 147.129 16.8868C146.778 16.3161 146.603 15.5977 146.603 14.7318C146.603 13.7478 146.891 12.9114 147.469 12.2226C148.047 11.5338 148.79 11.0024 149.697 10.6285C150.626 10.2545 151.595 10.0676 152.606 10.0676C153.246 10.0676 153.916 10.1463 154.618 10.3038C155.319 10.4415 155.99 10.6777 156.63 11.0123C157.269 11.3271 157.806 11.7503 158.239 12.2816C158.465 12.5768 158.6 12.931 158.641 13.3444C158.682 13.7576 158.486 14.1315 158.053 14.4661C157.744 14.7023 157.383 14.8105 156.97 14.7908C156.558 14.7515 156.217 14.6138 155.949 14.3776C155.598 13.9446 155.124 13.6002 154.525 13.3444C153.947 13.0885 153.277 12.9606 152.514 12.9606C152.204 12.9606 151.864 13 151.492 13.0787C151.142 13.1377 150.832 13.2854 150.564 13.5215C150.296 13.738 150.162 14.0922 150.162 14.5842C150.162 15.0369 150.316 15.4009 150.626 15.6765C150.935 15.9323 151.348 16.1488 151.864 16.3259C152.4 16.4834 152.968 16.6408 153.566 16.7982C154.185 16.9557 154.814 17.1426 155.454 17.3591C156.094 17.5757 156.681 17.8609 157.218 18.2152C157.754 18.5695 158.187 19.0319 158.517 19.6027C158.848 20.1537 159.013 20.8622 159.013 21.7281C159.013 22.7318 158.703 23.588 158.084 24.2964C157.465 25.0049 156.691 25.546 155.763 25.9201C154.835 26.2745 153.885 26.4512 152.916 26.4512C151.699 26.4512 150.482 26.2548 149.264 25.861C148.047 25.4476 147.036 24.7294 146.231 23.706Z" fill="#81818B"/>
</svg>
