<svg width="164" height="35" viewBox="0 0 164 35" fill="none" xmlns="http://www.w3.org/2000/svg">
<path d="M-0.00610352 23.1287L11.6535 18.0754L18.3645 21.8652L19.7202 34.2984L11.4501 34.2323L12.6703 25.5883L11.2467 24.7905L4.26451 30.1097L-0.00610352 23.1287Z" fill="#81818B"/>
<path d="M19.1106 21.3329L29.4145 28.7127L33.4816 21.5989L25.2113 18.341V16.7453L33.4816 13.4209L29.4145 6.37329L19.1106 13.7534V21.3329Z" fill="#81818B"/>
<path d="M18.3645 13.1553L19.7202 0.722168L11.4501 0.85515L12.6703 9.49844L11.2467 10.2963L4.19673 4.97734L-0.00610352 11.892L11.6535 16.945L18.3645 13.1553Z" fill="#81818B"/>
<path d="M61.0724 16.0202V27.6684H65.5234V12.8239H59.0417V16.0202H61.0724Z" fill="#81818B"/>
<path d="M60.9333 10.7382C61.3413 11.1535 61.9629 11.3611 62.7971 11.3611C63.6324 11.3611 64.244 11.1535 64.633 10.7382C65.0415 10.3046 65.2452 9.76281 65.2452 9.11286C65.2452 8.44459 65.0415 7.90284 64.633 7.48756C64.244 7.05417 63.6324 6.8374 62.7971 6.8374C61.9629 6.8374 61.3413 7.05417 60.9333 7.48756C60.5443 7.90284 60.3495 8.44459 60.3495 9.11286C60.3495 9.76281 60.5443 10.3046 60.9333 10.7382Z" fill="#81818B"/>
<path d="M45.5776 27.3431C46.8387 27.9028 48.3869 28.183 50.2228 28.183C51.948 28.183 53.4311 27.9207 54.6743 27.3973C55.917 26.8737 56.8719 26.1421 57.5392 25.203C58.2259 24.2459 58.5687 23.1354 58.5687 21.8712C58.5687 20.6433 58.2448 19.6049 57.5954 18.756C56.9643 17.8893 56.0839 17.2121 54.9525 16.7246C53.8212 16.2188 52.5134 15.9028 51.0297 15.7765L49.4721 15.6411C48.5449 15.5687 47.8771 15.325 47.4692 14.9095C47.0607 14.4943 46.857 14.0066 46.857 13.4469C46.857 13.0134 46.9689 12.6162 47.1904 12.255C47.4135 11.8757 47.7469 11.5778 48.1921 11.361C48.6562 11.1445 49.2216 11.036 49.8894 11.036C50.594 11.036 51.1783 11.1623 51.6419 11.4153C51.7437 11.4687 51.8409 11.5259 51.9317 11.5865L51.9537 11.6016C51.9879 11.6245 52.0215 11.6482 52.054 11.6722C52.3359 11.8818 52.5601 12.1302 52.7271 12.4175C52.9675 12.8149 53.0888 13.2572 53.0888 13.7449H57.5392C57.5392 12.4445 57.2331 11.3159 56.6215 10.3588C56.0099 9.38366 55.1289 8.63427 53.9792 8.11038C52.8473 7.56863 51.4844 7.29773 49.8894 7.29773C48.3685 7.29773 47.0518 7.55073 45.9388 8.0563C44.8263 8.54397 43.9548 9.24821 43.3243 10.1691C42.7116 11.0901 42.4056 12.1828 42.4056 13.4469C42.4056 15.1986 43.0088 16.607 44.2142 17.6727C45.4196 18.7381 47.0334 19.3521 49.0547 19.5146L50.5851 19.65C51.8272 19.7584 52.7271 20.0023 53.2836 20.3813C53.8395 20.7425 54.1178 21.2391 54.1178 21.8712C54.1178 22.1617 54.069 22.4341 53.9713 22.6886C53.8989 22.8776 53.7991 23.0566 53.6731 23.2257C53.3754 23.6047 52.9402 23.9027 52.3653 24.1197C51.7905 24.3363 51.0765 24.4445 50.2228 24.4445C49.2773 24.4445 48.5076 24.3184 47.9144 24.0651C47.3206 23.7944 46.8759 23.4423 46.5783 23.0091C46.3005 22.5754 46.1619 22.1061 46.1619 21.6003H41.7383C41.7383 22.8825 42.0627 24.0204 42.7116 25.0133C43.3611 25.9887 44.316 26.7655 45.5776 27.3431Z" fill="#81818B"/>
<path d="M75.4548 27.8577C73.915 27.8577 72.6729 27.6774 71.7268 27.3158C70.7808 26.9369 70.0856 26.3136 69.6404 25.4469C69.2141 24.5618 69.0005 23.3703 69.0005 21.8712V15.9931H66.6915V12.8239H69.0005V8.81494H73.1454V12.8239H77.5968V15.9931H73.1454V22.034C73.1454 22.7382 73.3312 23.2799 73.7019 23.6589C74.0914 24.0204 74.6385 24.2008 75.3435 24.2008H77.5968V27.8577H75.4548Z" fill="#81818B"/>
<path fill-rule="evenodd" clip-rule="evenodd" d="M82.956 27.5328C83.9572 27.9659 85.1075 28.1829 86.4053 28.1829C87.6847 28.1829 88.8166 27.9659 89.7994 27.5328C90.7822 27.0992 91.5986 26.4943 92.2475 25.718C92.8964 24.9412 93.3327 24.0562 93.5547 23.0633H89.4655C89.2802 23.5148 88.9279 23.8938 88.4087 24.2007C87.8895 24.5077 87.2211 24.6616 86.4053 24.6616C85.8997 24.6616 85.4482 24.603 85.0503 24.4866C84.7473 24.398 84.4759 24.2759 84.2355 24.1197C83.679 23.7586 83.271 23.2526 83.0112 22.6027C82.9392 22.4175 82.8778 22.2239 82.8258 22.0222C82.7728 21.8178 82.7303 21.6052 82.6983 21.3838H93.833V19.9209C93.833 18.5665 93.5364 17.3205 92.9431 16.1828C92.3493 15.0269 91.4868 14.0969 90.3559 13.3926C89.2429 12.6703 87.8706 12.3091 86.2383 12.3091C84.9957 12.3091 83.8827 12.5259 82.8999 12.9593C81.936 13.3746 81.129 13.9434 80.4801 14.6658C79.8312 15.3881 79.3304 16.2099 78.9771 17.1309C78.6437 18.0337 78.4767 18.9818 78.4767 19.975V20.5168C78.4767 21.4741 78.6437 22.413 78.9771 23.334C79.3304 24.237 79.8312 25.0584 80.4801 25.799C81.1474 26.5216 81.9722 27.0992 82.956 27.5328ZM82.7749 18.7052C82.787 18.6478 82.8001 18.5914 82.8143 18.5358C82.8531 18.3826 82.8972 18.2359 82.9482 18.0956C82.9765 18.0158 83.007 17.9379 83.0395 17.8622C83.3172 17.194 83.7257 16.6884 84.2633 16.3453C84.4644 16.2171 84.6822 16.1128 84.9159 16.0326C85.3096 15.898 85.7506 15.8306 86.2383 15.8306C86.9991 15.8306 87.6291 16.0022 88.1299 16.3453C88.6491 16.6703 89.0387 17.1488 89.2986 17.7809C89.3196 17.8319 89.3395 17.8838 89.3589 17.9364C89.3894 18.0201 89.4183 18.1061 89.4445 18.1942C89.4839 18.3253 89.518 18.461 89.5485 18.6012C89.5705 18.7045 89.5894 18.8104 89.6062 18.9187H82.7319C82.745 18.8463 82.7592 18.7752 82.7749 18.7052Z" fill="#81818B"/>
<path d="M95.6699 27.6684V12.8238H99.2032V16.5626C99.251 16.3403 99.3055 16.127 99.3664 15.9224C99.4189 15.7501 99.4751 15.5839 99.5366 15.4243C99.9261 14.4129 100.51 13.6546 101.289 13.1488C102.068 12.6251 103.023 12.3634 104.155 12.3634H104.349C105.5 12.3634 106.454 12.6251 107.215 13.1488C107.994 13.6546 108.578 14.4129 108.967 15.4243L108.998 15.5006L109.024 15.5704C109.042 15.5211 109.06 15.4725 109.078 15.4243C109.486 14.4129 110.08 13.6546 110.859 13.1488C111.638 12.6251 112.593 12.3634 113.725 12.3634H113.919C115.069 12.3634 116.033 12.6251 116.812 13.1488C117.61 13.6546 118.213 14.4129 118.62 15.4243C119.028 16.4356 119.233 17.6998 119.233 19.2167V27.6684H114.782V18.9728C114.782 18.1601 114.559 17.5011 114.114 16.9955C113.687 16.4897 113.075 16.2369 112.278 16.2369C111.48 16.2369 110.85 16.4988 110.386 17.0225C109.923 17.5281 109.691 18.2053 109.691 19.0542V27.6684H105.212V18.9728C105.212 18.1601 104.989 17.5011 104.544 16.9955C104.118 16.4897 103.514 16.2369 102.736 16.2369C101.92 16.2369 101.28 16.4988 100.817 17.0225C100.353 17.5281 100.121 18.2053 100.121 19.0542V27.6684H95.6699Z" fill="#81818B"/>
<path fill-rule="evenodd" clip-rule="evenodd" d="M131.123 24.808V27.6685H134.655V18.5666C134.655 17.1941 134.377 16.0746 133.821 15.2076C133.264 14.3227 132.449 13.6636 131.373 13.2302C130.316 12.7969 129.008 12.5801 127.45 12.5801C127.113 12.5801 126.76 12.5835 126.393 12.5908C126.176 12.5951 125.953 12.6006 125.726 12.6072C125.113 12.6252 124.52 12.6523 123.945 12.6885L123.506 12.7173C123.28 12.7325 123.069 12.7476 122.869 12.7629C122.72 12.7742 122.577 12.7856 122.443 12.7969V16.4538C123.018 16.4176 123.658 16.3814 124.363 16.3454C124.56 16.3354 124.755 16.326 124.949 16.3173C125.229 16.3046 125.505 16.2937 125.779 16.2842C125.995 16.2765 126.209 16.2697 126.421 16.2641C127.089 16.246 127.627 16.237 128.035 16.237C128.85 16.237 129.444 16.4265 129.815 16.8059C130.186 17.1851 130.371 17.754 130.371 18.5125V18.5666H127.617C126.264 18.5666 125.067 18.7382 124.028 19.0814C122.99 19.4063 122.183 19.921 121.609 20.6253C121.033 21.3117 120.746 22.1965 120.746 23.2799C120.746 24.2733 120.978 25.131 121.441 25.8537C121.905 26.5575 122.545 27.0993 123.361 27.4783C124.196 27.8577 125.16 28.0475 126.254 28.0475C127.311 28.0475 128.202 27.8577 128.925 27.4783C129.667 27.0993 130.242 26.5575 130.65 25.8537C130.722 25.7346 130.788 25.6116 130.851 25.4836C130.939 25.3029 131.018 25.1127 131.087 24.9131L131.123 24.808ZM130.371 22.1695V20.9775H127.589C126.81 20.9775 126.208 21.167 125.781 21.5463C125.373 21.9075 125.169 22.4041 125.169 23.0361C125.169 23.3337 125.22 23.6039 125.321 23.8478C125.424 24.0921 125.577 24.3091 125.781 24.4988C126.208 24.8604 126.81 25.0406 127.589 25.0406C127.737 25.0406 127.881 25.0335 128.019 25.0196C128.132 25.008 128.243 24.9914 128.349 24.9704C128.552 24.9301 128.745 24.872 128.925 24.7968C129.333 24.6165 129.667 24.3185 129.926 23.9028C130.186 23.4876 130.335 22.9095 130.371 22.1695Z" fill="#81818B"/>
<path d="M137.319 27.6685V12.8239H140.852V17.7236C141.022 16.3249 141.448 15.1971 142.132 14.3409C143.06 13.2032 144.394 12.6344 146.138 12.6344H146.722V16.3725H145.609C144.386 16.3725 143.44 16.6974 142.772 17.3476C142.104 17.9797 141.77 18.9007 141.77 20.1105V27.6685H137.319Z" fill="#81818B"/>
<path d="M152.367 20.7336H153.841L158.654 27.6685H163.661L157.559 19.1518L162.576 12.8239H157.903L152.367 19.8822V7.89392H147.916V27.6685H152.367V20.7336Z" fill="#81818B"/>
</svg>
